<mxfile host="app.diagrams.net" modified="2023-10-04T22:29:13.835Z" agent="Mozilla/5.0 (X11; Linux x86_64; rv:109.0) Gecko/20100101 Firefox/118.0" etag="H7tKUUw4yQvPdw1et91U" version="21.6.2" type="github">
  <diagram name="Page-1" id="ELlTo9OpQP3YYbNFEfGA">
    <mxGraphModel dx="1078" dy="807" grid="0" gridSize="10" guides="1" tooltips="1" connect="0" arrows="0" fold="1" page="0" pageScale="1" pageWidth="413" pageHeight="291" math="0" shadow="0">
      <root>
        <mxCell id="0" />
        <mxCell id="1" parent="0" />
        <mxCell id="BZ9eJyMp1eCeKyl2T3HH-24" value="" style="rounded=0;whiteSpace=wrap;html=1;fillColor=#f8cecc;strokeColor=#b85450;" vertex="1" parent="1">
          <mxGeometry x="30" y="-30" width="350" height="320" as="geometry" />
        </mxCell>
        <mxCell id="BZ9eJyMp1eCeKyl2T3HH-19" value="" style="whiteSpace=wrap;html=1;aspect=fixed;fillColor=#dae8fc;strokeColor=#6c8ebf;" vertex="1" parent="1">
          <mxGeometry x="100.5" y="-22" width="272" height="272" as="geometry" />
        </mxCell>
        <mxCell id="BZ9eJyMp1eCeKyl2T3HH-26" value="" style="whiteSpace=wrap;html=1;aspect=fixed;fillColor=#d5e8d4;strokeColor=#82b366;" vertex="1" parent="1">
          <mxGeometry x="220" y="90" width="80" height="80" as="geometry" />
        </mxCell>
        <mxCell id="BZ9eJyMp1eCeKyl2T3HH-1" value="" style="whiteSpace=wrap;html=1;aspect=fixed;" vertex="1" parent="1">
          <mxGeometry x="40" y="110" width="40" height="40" as="geometry" />
        </mxCell>
        <mxCell id="BZ9eJyMp1eCeKyl2T3HH-2" value="" style="image;aspect=fixed;html=1;points=[];align=center;fontSize=12;image=img/lib/azure2/networking/Front_Doors.svg;" vertex="1" parent="1">
          <mxGeometry x="43" y="115" width="34" height="30" as="geometry" />
        </mxCell>
        <mxCell id="BZ9eJyMp1eCeKyl2T3HH-3" value="" style="endArrow=classic;html=1;rounded=0;exitX=1;exitY=0.5;exitDx=0;exitDy=0;" edge="1" parent="1" source="BZ9eJyMp1eCeKyl2T3HH-1" target="BZ9eJyMp1eCeKyl2T3HH-4">
          <mxGeometry width="50" height="50" relative="1" as="geometry">
            <mxPoint x="200" y="220" as="sourcePoint" />
            <mxPoint x="160" y="130" as="targetPoint" />
          </mxGeometry>
        </mxCell>
        <mxCell id="BZ9eJyMp1eCeKyl2T3HH-4" value="" style="whiteSpace=wrap;html=1;aspect=fixed;" vertex="1" parent="1">
          <mxGeometry x="240" y="110" width="40" height="40" as="geometry" />
        </mxCell>
        <mxCell id="BZ9eJyMp1eCeKyl2T3HH-5" value="" style="image;aspect=fixed;html=1;points=[];align=center;fontSize=12;image=img/lib/azure2/app_services/App_Service_Environments.svg;" vertex="1" parent="1">
          <mxGeometry x="240" y="110" width="40" height="40" as="geometry" />
        </mxCell>
        <mxCell id="BZ9eJyMp1eCeKyl2T3HH-6" value="" style="image;aspect=fixed;html=1;points=[];align=center;fontSize=12;image=img/lib/azure2/app_services/CDN_Profiles.svg;" vertex="1" parent="1">
          <mxGeometry x="150" y="50" width="34" height="20" as="geometry" />
        </mxCell>
        <mxCell id="BZ9eJyMp1eCeKyl2T3HH-7" value="" style="image;aspect=fixed;html=1;points=[];align=center;fontSize=12;image=img/lib/azure2/app_services/CDN_Profiles.svg;" vertex="1" parent="1">
          <mxGeometry x="116" y="210" width="34" height="20" as="geometry" />
        </mxCell>
        <mxCell id="BZ9eJyMp1eCeKyl2T3HH-8" value="" style="image;aspect=fixed;html=1;points=[];align=center;fontSize=12;image=img/lib/azure2/app_services/CDN_Profiles.svg;" vertex="1" parent="1">
          <mxGeometry x="160" y="190" width="34" height="20" as="geometry" />
        </mxCell>
        <mxCell id="BZ9eJyMp1eCeKyl2T3HH-9" value="" style="image;aspect=fixed;html=1;points=[];align=center;fontSize=12;image=img/lib/azure2/app_services/CDN_Profiles.svg;" vertex="1" parent="1">
          <mxGeometry x="116" y="70" width="34" height="20" as="geometry" />
        </mxCell>
        <mxCell id="BZ9eJyMp1eCeKyl2T3HH-12" value="" style="endArrow=classic;html=1;rounded=0;" edge="1" parent="1">
          <mxGeometry width="50" height="50" relative="1" as="geometry">
            <mxPoint x="170" y="130" as="sourcePoint" />
            <mxPoint x="170" y="70" as="targetPoint" />
          </mxGeometry>
        </mxCell>
        <mxCell id="BZ9eJyMp1eCeKyl2T3HH-15" value="" style="image;aspect=fixed;html=1;points=[];align=center;fontSize=12;image=img/lib/azure2/general/Cost_Management.svg;" vertex="1" parent="1">
          <mxGeometry x="220" y="200" width="44.67" height="40" as="geometry" />
        </mxCell>
        <mxCell id="BZ9eJyMp1eCeKyl2T3HH-16" value="" style="endArrow=classic;html=1;rounded=0;entryX=0.601;entryY=1.145;entryDx=0;entryDy=0;entryPerimeter=0;" edge="1" parent="1" target="BZ9eJyMp1eCeKyl2T3HH-9">
          <mxGeometry width="50" height="50" relative="1" as="geometry">
            <mxPoint x="136" y="130" as="sourcePoint" />
            <mxPoint x="250" y="170" as="targetPoint" />
          </mxGeometry>
        </mxCell>
        <mxCell id="BZ9eJyMp1eCeKyl2T3HH-17" value="" style="endArrow=classic;html=1;rounded=0;entryX=0.588;entryY=0;entryDx=0;entryDy=0;entryPerimeter=0;" edge="1" parent="1" target="BZ9eJyMp1eCeKyl2T3HH-8">
          <mxGeometry width="50" height="50" relative="1" as="geometry">
            <mxPoint x="180" y="130" as="sourcePoint" />
            <mxPoint x="250" y="230" as="targetPoint" />
          </mxGeometry>
        </mxCell>
        <mxCell id="BZ9eJyMp1eCeKyl2T3HH-18" value="" style="endArrow=classic;html=1;rounded=0;entryX=0.573;entryY=-0.069;entryDx=0;entryDy=0;entryPerimeter=0;" edge="1" parent="1" target="BZ9eJyMp1eCeKyl2T3HH-7">
          <mxGeometry width="50" height="50" relative="1" as="geometry">
            <mxPoint x="135" y="130" as="sourcePoint" />
            <mxPoint x="250" y="230" as="targetPoint" />
          </mxGeometry>
        </mxCell>
        <mxCell id="BZ9eJyMp1eCeKyl2T3HH-20" value="" style="image;aspect=fixed;html=1;points=[];align=center;fontSize=12;image=img/lib/azure2/devops/Application_Insights.svg;" vertex="1" parent="1">
          <mxGeometry x="330" y="197" width="30.03" height="43" as="geometry" />
        </mxCell>
        <mxCell id="BZ9eJyMp1eCeKyl2T3HH-21" value="" style="shape=image;verticalLabelPosition=bottom;verticalAlign=top;imageAspect=0;aspect=fixed;image=data:image/png,iVBORw0KGgoAAAANSUhEUgAAA7UAAALICAYAAACgkteeAAAL5XpUWHRSYXcgcHJvZmlsZSB0eXBlIGV4aWYAAHjarZhrlts6DoT/cxWzBL5AkMvh85zZwSx/PtDq7qTzzr12x1JkiiJRhULBbv/vv8f9h1eSkl0WraWV4nnlllvsnFT/er2Owef7eV9DfHqufnXdzerjPYtcsiGvYb7s1zF0rsvHDZqf6+Pr607n6yTWZ6Lni7cJkz3ZHvWMq89EKb6uh+f/rj339fzFdp5/Zfq75bCeVX76f1aCsYT5UnRxp5A8n9meklhBaqlzzHyGVOPbFUbd6+n7sXPvp5+C9+zkm9j5/oxIX4fCvRZr6/4Uo+d6kO/H7kboyxWFt9P49RerfCzqc+zOWfWc/dpdz4VIFfdsyj9T3DMGDkL5ikbhrfwTzvW+G+/KFieILR43eE8XWojE8YQcVujhhH2PM0yWmOOOyjHGGdO9VpPGFucFJds7nKiAsVyqYDVBLXE5vq8l3Oe2+7wZKk9egZExMFngjm/e7nsX/+b9PtE5FtsQLJjzFSvWFY3TLMOQs09GAUg4T0zlxve+3TusHy8DNoGg3DBXNtj9eE0xJHxwK12cE+PEZ+dfqRF0PRMQIp4tLCYkEPAlJAkleI1RQyCOFXw6K48pxwECQSSu4A7YpFQAh2zg2dyj4Y6NEl+XkRaAkFSSAg3pAlg5C/zRXOFQlyTZiUgRlSpNekklFymlaDGN6po0q2hR1apNe001V6mlaq211d5iS0iYtNLUtdpa652Hdqbu3N0Z0fuII408ZJSho442+oQ+M0+ZZeqss82+4kqL9F9lqVt1tdV32FBp5y27bN11t90PXDvp5COnHD31tNPfUXtQ/Rq18Am5n6MWHtQMsXzH6QdqXFZ9myKYnIhhBmIxBxBXQwBCR8PM15BzNOQMM98iSSER1IIYOCsYYiCYd4hywjt2H8j9FDcn+Y9wiz9Czhl0/wZyzqB7kPsWt++gtvrV4XQBsiy0mPp0EDYG7Npj7VaT/vro/ukEP5hoLF/k+LMs0F1ljBS1SdIWR21GrIOS6ipjnj6W9JnORiXLcgdtkdn0QLujKUoX3/tG0gufcxxq/TwqmUcczYMBOZ8Uwzwhdo2JBMiMc/3IMqKiHc1bXso8pTfIBFp9rShtx7Xl7G1YpFO1HNYR+0qBhSbZp4TFiqbFevrtifgQXWxolbbYjSoJkaNuQzCMXUvvS2uCST0gTmyX+hyy8Jdd9XJP/T88up8MUFZY9cya9hpnj4awxyAbHdt9FQQ8+jOKRblvlwcj2ZEvBD+sfLKcVsm6C+TpQsLN5fFjMK/2UlfJdR7Sii9AafdBVKZ3ZEheZUJZYpeY9Jy6yHa7k3zFWCnoLAkK4DXs3Kz+ZbDIYtUn1zFJ++BqjK3J2qdOVjHJDeorT87S2B8pFb2mxb7AbYYBh5ifwEtibJsohaR94na+hZWIQBBqL7OPrbmM1NUf7bNbVEJrFxlt+8HIf3t0HxfYftt1oBiIWBsF/H2l0ozFas/yqmeLtCVqRKw97wwb/KgXHfe92X90fAPLtPbC1feDVctu/QBkcgqmT5W0gm5czUWR6OCF3mZG0utNNq/HkW+iB1j68cvmG/CafBhspGa4fN7HspIfD3Y2ekxzYOgVyAGONyb5xT0zjSK91XiGztbOyLWmflZWRQcHq/X7yWQ0ex2/FY1IIDx1ISUpmiWbXcTcfKVU6MAejdmNHZBB9p5jMCN2ZJNoourEFp/L2gCWR6E4hMhqPX/sKBye0Ter0HwQg7QLnNkllpzYRUGJkxzSuLvppcyUjlrKI+Dneh/I8IptraZ6Lfqhre+CHMwU2OHWwfVNWuzjBwLmFii1oRfUBjO0UlLhIqIS0A0cwqGAMJx8W8idRzwZL7ohANuGz2se3x0KhxLaSH9kmIrlNkKaxHlQFzLpLGWQcAhjDXgiyWZbKY7kPPONVpV0aI66BDAmzalMC8fZiSvnkCPI4EnaD4l5USUoaPKCDrOD9OZq0kUgU+zYmstw2an139cyLasnYIBSm1itst3U5nfv+AJ4wmkijiudBuCKlaaW4/0C5PADyLouUg77uJS0k4WiDOoO2oQbCdOkBFbOk+fSaAwrFFFdKxQr58cIliDYyCsChRpJd0iqLaW20xwIjYMeYWN+9thIBxZAwszS41mrYR4O/RXBf8kIPd2X6fVVyrhfJtjPc/GVXeSWe0+uAAfenou5kikjs3qPddmR6oafWuQMdZP14nlorVleSB25QsHd3HiuvSmEbOYarltceQ6PJ64dTYPK+dgQ+hUGI0A4nYYdJEUn2wet6IjgISlZHSU5mR7dIm5FHcJxOVJlb8GZNypYwX7anHn7XuFpC5ivXemOqMCYw8JzsAaCs7IsQrsHliwC4ZHE3wKKW58y/RYbLzJCfVEwT8/u3WVy/00mY9YW+9E5V/zEZPdXZZqyxLMh9olTKVns0JlQkPspHIqOjqsCpDHkRLbKwspSWNbIWG1vSUWH2ZTgsvne6DsHRpgGs7mQRky9zVq4JSKPMmOBO70qLgs9wcicq1JUALi8aVtJpfvANQTyDNRhYo+JTDwCQAggBSawnET8JyRKMBFW1E09k1WTGfiKeAZbEYunPaXQpFNGjQ5jRA7uxebwXAP+NcSNKsDK8ylMAVnnegTTPO09qz4lnfk6koAPNFfbN8gUVGzG9ip+A6z2eMXr6pqme89tQuyur2+5N7jnjjseG37JN5B0xhwjGPEfr9wpaP5baSSTXrDA93tHdbhQKi7i07Ms+tORWx3BfplJmML++o7OYJgWmzik197GVHzfs02O7u3kD49rsVKPPk4sS8SfoUcKC6Kfg21gbGJWYrqHx0ZHIPkOqlAskovgAdOwLSxTzURQf6ldlKgd0brRpkkJe5wLa0tqWzCOoUirx57poSuluvbZnqKuVtTdziaYt/IfMVe/O77rGBUpsoquaRWzKWq1im9RtWiycMxhU1bNWhJdF8AO9k7z+PTtw+IYUW205fYRlfWxE+wledUmtm7DeRMKpWJ0Gq9O/ejk2ujv3PoZT76kyUOrZ/CLie4XVAQUwv1OLPsd7p1akvsVQQo0W0PQsTIoN8WD+0ag2tG4Trxybgv9o5aQ1oIJRzfZrSDeGNaZ6ursPKB61r442k/aGhLK7OW01PbISrZYdIuFCLaC3MPRzBUOWIacWDjeSxKMyGEko66LB0u9Q1YMct6Xsig6bYKigqql1Kdr+UXT4n6r0vd8aoECPJJaYWsWKJKtx0K6dks70K+dFhQvRjUqhgoNBKYqKKrDkNMBFf6aFTQuhtvTZWKt+L65NaEzvslwNGdUBLAwZ9gtqWNim1DQm+Sn7pkfWfO9BCwIvIdPslqrm0JC3K56BuA3b9CtmmJ0BqVq0mWYEsP8Pjyuoh1R3FxG1WgVT4SsHiRYomJviXheeUxHHaPqICAl0p9SAA75SxMbaGpsYagohaC0kq07tiaJ8kV2mfp0zHFulkrSXLSajVUFqIm5S9Ts9FGzyyBNTtAwrPbkEehSMABdMIjdKFLybEKfhPjDNIKXCtDPCf9M24sRRmllG057zrmnEJRhvyMzw6Rla9YsCZ5x0WLvkwptVkTyX0UT3v31TwjuR1/8WNYSm83ts1tyL7u04POgEsZbYP27VzKuvM1N2f9sWzAmiRTL8wT3/a8aXS4Tk1xMjLF+TVvLb3WQf3eE/WYHCPZbzX2V3PrUXNwNSCLZSoBwNJAaLxNoVH3qgX57k3yDBoeWekbyzdnvML30SQ51OgPusSqwBmI/rS0jL+yHkfNUAf+qA+n+bJ7tJ5VtYrwqPS1VA4MFeXrZO4VyY7vqL4L7+Rv3t8H914It9qseGaSjQ+gQXNqH8oI4zE7DSE40KFRa3jCfjMcf7jn9od2y7kFui0v7unZek6CRzNtSuLh09aRRTBAM054b7MGLiIc1d7HMO4V+kNL5lspkKe3G6rr3pmtBbBxNn0UNkn9bq+ynNJqUhUbiF5ATnLLfCx1BwnDH9ZD9aSbyYTtTewu8Uhpw8WLujqI5kC7/FvP+G6Fz/5DY30xEz9LDH7ukx01SM5r7P8y3PJFu7AfFAAAABmJLR0QA/wD/AP+gvaeTAAAACXBIWXMAABYlAAAWJQFJUiTwAAAAB3RJTUUH4wQSEAoLIo9oKgAAHFJJREFUeNrt3UFyFFeex/GXVcwsZkVvBlfHLIoT9HCCKaRZ22bfWMUJLE6AOIHhBEju3kPYW5DyBuYGqsXEyMKLZt9UZi8QRoBkqaSszPy//HwOQBBPBJFf3vsFKQEAAAAAAAAAAAAAAAAAAAAAAAAAAAAAAAAAAAAAAAAAAAAAAAAAAAAAAAAAAAAAAAAAAAAAAAAAAAAAAAAAAAAAAAAAAAAAAAAAAAAAAAAAAAAAAAAAAAAAAAAAAAAAAAAAAAAAAAAAAAAAAAAAAAAAAAAAAAAAAAAAAAAAAAAAAAAAAAAAAAAAAAAAAAAAAAAAAAAAAAAAAAAAAAAAAAAAAAAAAAAAAAAAAAAAAAAAAAAAAAAAAAAAAAAAAAAAAAAAAAAAAAAAAAAAAAAAAAAAAAAAAAAAAAAAAAAAAAAAEFrhCKAZ39092i3GN/5RvHv3dLecLJwIAACs38gRQIPqarsejw7ubxzNHQYAAIhaiGg6KkbPtjaPD/+6efyt4wAAAFELIeN2nNLzrc03z+azo6njAAAAUQsB1fN6PDrc+t/ffhC3AAAgaiFo29rbAgCAqIXYft/bilsAABC1EDxu7W0BAEDUQlgne1txCwAAohaCx629LQAAiFoIy94WAABELeQSt54kAwCAqIWw7G0BAEDUQh5xa28LAACiFsKytwUAAFELucStJ8kAACBqISx7WwAAELWQR9za2wIAIGqBsOxtAQAQtUAucetJMgAAohYIy94WAABRC+QRt/a2AACIWiAse1sAAEQtkEvcepIMAICoBcKytwUAQNQCecStvS0AAKIWCMveFgAAUQvkEreeJAMAIGqBsOxtAQAQtUAecWtvCwCAqAXCsrcFAEDUArnErSfJAACIWiAse1sAAEQtkEfc2tsCACBqgbDsbQEAELVALnHrSTIAAKIWCMveFgAAUQvkEbf2tgAAiFogLHtbAABELZBN3D73JBkAAFELRPWtvS0AAKIWCO7D3vbXbWcBAICoBSKajoriB3tbAABELRA8bu1tAQAQtUBs9rYAAIhaIDp7WwAARC0Qm70tAACiFsghbu1tAQAQtUBs9rYAAIhaIDp7WwAARC0Qm70tAACiFsghbu1tAQAQtUBs9rYAAIhaIDp7WwAARC0Qm70tAICoBcghbu1tAQBELUBs9rYAAKIWIDp7WwAAUQsQm70tAICoBcghbu1tAQBELUBs9rYAAKIWIDp7WwAAUQsQm70tAICoBcghbu1tAQBELUBs9rYAAKIWIDp7WwAAUQsQm70tAICoBcghbu1tAQBELUBs9rYAAKIWIDp7WwAAUQsQm70tAICoBcghbu1tAQBELUBs9rYAAKIWILr3e9vvNn575CwAAEQtQETToqh27G0BAEQtQOi4fb+3fXPgSTIAgKgFCKqe2dsCAIhagOhxa28LACBqAUKztwUAELUA8ePW3hYAQNQCBGdvCwAgagHix629LQCAqAUIzd4WAEDUAsSPW3tbAABRCxCcvS0AgKgFiB+39rYAAKIWIDR7WwAAUQsQP27tbQEARC1AcPa2AACiFiB+3NrbAgCIWoDQ7G0BAEQtQPy4tbcFAEQtAMHZ2wIAohaA+HE7r8ejA+cAAIhaAKKaOgIAQNQCAACAqAUAAABRCwAAAKIWAAAAUQsAAACiFgAAAEQtAAAAohYAAABELQAAAIhaALqwtfnm2Xx2NHUSAM2azX7+fjZ7/q2TAFELwFrV83o8Ori/cTR3FgBNxOzz2Wz200FK9ZOUxjedCFzfDUcAwAWmo2L0bGvz+FFVV4//tj/ZdSQAK8fsNKXxs5TSzGmAqAWg07h98z/Fcvl4t5wsHAnAhTF7M6Ub36dUb6eU3MzCGnh+DMCK6nk9Hh3a2wJcFLQ/f5/S+DClekfQgqgFoJ9xa28L8EXMnt7NillYN8+PAbgOe1uAjzE7tZsFUQtA6Li1twUGGbN2s9Ahz48BaJC9LTC0oLWbBVELQK5xa28LZByzdrPQF54fA7Au9rZAjjE7tZsFUQvAIOPW3hYIHbN2s9BTnh8D0BJ7WyBq0NrNgqgFgE/j1t4WCBCzdrMQgefHAHTB3hboc8xO7WZB1ALACnFrbwv0ImbtZiEgz48B6AF7W6DroLWbBVELAM3Erb0t0GLM2s1CdJ4fA9A39rZAGzE7tZsFUQsALcStvS3QaMzazUJmPD8GoOfsbYGmgtZuFkQtAHQbt/a2wBVi1m4Wcub5MQCR2NsCq8Ts1G4WRC0A9Dhu7W2BM2PWbhYGxPNjAAKztwU+D1q7WRC1ABAzbg/ub/y67SxgqDFrNwtD5fkxALmYjorih63N4+/tbWFQMTu1mwVRCwCZxe3o2dbm8TfFsnpobwvZxqzdLJBS8vwYgHx9a28LuQat3SwgagEYDHtbyCdm7WaBL3l+DMAQ2NtC7Jid2s0CohYA7G0hWszazQIX8vwYgCGyt4XeB63dLCBqAeAC9rbQv5i1mwVW4/kxAENnbwv9iNmp3SwgagHgWnFrbwsdxKzdLHAtnh8DwKfsbaG1oLWbBUQtAKyJvS2sL2afz2azn3+xmwWa4PkxAJzP3haajdnpx91s7UAAUQsA7cWtvS1cI2Y/7GZ3nAbQNM+PAeDy7G1h5aD9ZDcLIGoBoHv2tnBxzNrNAu3w/BgArsbeFs6O2andLCBqASBU3Nrbgt0s0BXPjwGgGfa2DDho7WYBUQsAmbC3ZUgxazcLdM/zYwBonr0tucfs1G4WELUAMIi4tbclq5i1mwV6x/NjAFg/e1syCFq7WUDUAsDA2dsSMWbtZoF+8/wYANplb0uUmJ3azQKiFgD4g7i1t6WXMWs3C4Ti+TEAdMvelh4Frd0sIGoBgCuxt6XLmLWbBeLy/BgA+sPelrZjdmo3C4haAGANcWtvy1pj1m4WyIbnxwDQX/a2rCFo7WYBUQsAtMreliZi1m4WyJPnxwAQg70tV43Zqd0sIGoBgB7Frb0tl4pZu1lgEDw/BoCY7G35g6C1mwVELQAQgr0tp2PWbhYYHs+PASA+e1sxO7WbBUQtAJBB3NrbDixm7WaBwfP8GADyY287iKC1mwUQtQCQtfd72+82fnvkLHKKWbtZgNM8PwaAvE2LotrZ2jye29uGj9mp3SyAqAWAwcbt+73tm61iuXxgbxsqZu1mAf6A58cAMCj1zN42UtDazQKIWgDgrLi1t+11zNrNAlyW58cAMFz2tv2L2andLICoBQBWjFt7285j1m4W4Io8PwYATtjbdhO0drMAohYAaDJu7W1biVm7WYAmeH4MAJzF3nZ9MTu1mwUQtQBAS3Frb9tYzNrNAqyB58cAwCXY214vaO1mAUQtANCHuLW3XSlmn89ms58O7WYB1sfzYwBgVfa2F8fs9ONuFgBRCwD0Mm7tbb+I2ZspjR+llLb98QBoh+fHAMA12du+D9oPu1lBCyBqAYCIcTvIva3dLEC3PD8GAJo0mL2t3SxAP7iphYb8eDCZF3X1INVp4TQAft/bHuT2JHk2e35zNvvph5OnxoIWQNRCPnb3J7tFVd2tU/3UaQCklNve1m4WQNRC/mFbThY/vvpqu1hWt+tU7TkRgJSi723tZgFELQw0bifzIqV7niQDpJQ+7m0P728czYPE7HQ2++kgpfFBSmnqRwggamF4cfvq1ou9/Vu37W0BPsZt3/e2drMAohb4PG7tbQE+08+9rd0sgKgFzgtbe1uAs+K2F3tbu1kAUQusFLf2tgCndLa3tZsFELXAVePW3hbgi7hta29rNwsgaoGm4tbeFuAz693b2s0CiFqg6bC1twU4K27n9Xh0cH/j10bi8+Spsd0sgKgF1hu39rYAp0xHqfhLQ7/WLNnNAohaoIW4tbcFAABRC+Hj1t4WAABELYQOW3tbAAAQtZBH3NrbAgCAqIXIcWtvCwAAohbCx629LQAAohYIHbb2tgAAiFogj7idzIuiuutJMgAAohaIGbcvJ6W9LQAAohaIHbcne9uiqB47DQAARC0QL2zLyWL35WTH3hYAAFELhI5be1sAAEQtEDtu7W0BABC1QPi4tbcFAEDUAqHD1t4WAABRC+QQt/a2AACIWiB23NrbAgAgaoHwcWtvCwCAqAVCh629LQAAohbIIW7tbQEAELVA7Li1twUAQNQC4ePW3hYAAFELhA5be1sAAEQtkEPc2tsCACBqgdhxa28LAICoBcLHrb0tAACiFggdtva2AACIWiCHuLW3BQBA1AKx49beFgAAUQuEj1t7WwAARC0QOmztbQEAELVADnFrbwsAgKgFYsetvS0AAKIWCB+39rYAAIhaIHTY2tsCACBqgRzi1t4WAABRC8SOW3tbAABELRA+bu1tAQAQtUDosLW3BQBA1AI5xK29LQAAohaIHbf2tgAAiFogfNza2wIAIGqB0GFrbwsAIGodAZBD3NrbAgCIWoDYcWtvCwAgagHCx629LQCAqAUIHbb2tgAAohYgh7i1twUAELUAsePW3hYAQNQChI9be1sAAFELEDps7W0BAEQtQA5xa28LACBqAWLHrb0tAICoBQgft/a2AACiFiB02NrbAgCIWoAc4tbeFgBA1ALEjlt7WwAAUQsQPm7tbQEARC1A6LC1twUAELUAOcStvS0AgKgFiB239rYAAKIWIHzc2tsCAIhagNBha28LACBqAXKIW3tbAABRCxA7bu1tAQBELUD4uN2f7BbVv9+xtwUAELUAMcO2/NNbe1sAAFELEDxuT/a2y3/e8SQZAEDUAgSN2/96bW8LACBqAWLHrb0tAICoBQgdtva2AACiFiB+3NrbAgCIWoDwcWtvCwAgagGix629LQCAqAUIHbb2tgAAohYgftza2wIAiFqA8HFrbwsAIGoBosetvS0AgKgFCB229rYAAKIWIH7c2tsCAKIWgPBxa28LAIhaAKLH7cne1kkAAKIWgJhhW/7prVMAAEQtAAAAiFoAAAAQtQAAACBqAQAAELUAAAAgagEAAEDUAgAAIGoBAABA1AIAAICoBaALRb18mOq0cBIAjdtNafnCMYCoBWCdX1z7f35SVNXdOlV7TgOgEWVKy7tl+fWDsrz31nHA9d1wBAD8YdiWk0VKaT6fHe1U47RTpNGWUwFY2SKl5cOyvOd2FhrmphaAS8ftj68m86KuHniSDHBpb1OqH6e0vCNoYT3c1AKwWtzuT3ZTSrvzjaN5nUaPUpGmTgXg7L8yT25nPTOGNXJTC8CV49beFuBMpd0stMdNLQBXD1t7W4DTFnaz0D43tQA0Erf2tsCA2c1Ch9zUAtBc3NrbAgP8q89uFrrlphaAtcStvS2QudJuFvrBTS0A6wlbe1sgT4uUlg/K8l7pKKAf3NQCsPa4tbcFMnB6NytooUfc1ALQTtza2wJh1U9TqnY8M4Z+clMLQOtxa28LBFG+381+sy1oob/c1ALQftja2wL9trCbhTjc1ALQadza2wI9YjcLAbmpBaD7uLW3BTpnNwtRuakFoFdxa28LtKy0m4XY3NQC0K+wtbcF2rGwm4U8uKkFoLdxa28LrIHdLIhaAIZiPjuadh63+5Pdvf1bt8UtcH3105SWt8vyG9tZELUADOLzbzw6/G7jt0d9+L3Y2wLXUNrNgqgFYKCKotrZ2jw+vL9xNO88bD88SV5Wt8UtcAmL9zH79V1PjUHUAjBs01Exera1eXw4n/3ff/cmbj1JBs5mNwuiFgDOjtt6/G+/bG2+eWZvC/ST3SyIWgC4+KNx/mFvO58d3uxD3NrbwuCVdrMgagFgJUVR7dTj//jF3hbo0MJuFkQtAFyHvS3QBbtZQNQC0Gzc2tsC7bCbBUQtAOv72LS3BdaltJsFRC0ArbC3BRq0sJsFRC0AXbC3Ba7DbhYQtQD0I27tbYHV2M0CohaA/n2k9nRvWz/1s4HeKN/fzNrNAqIWgJ7q3972q217W+jc4tRu9rXjAEQtAH3Xz71tSvc8SYZWvU2pflyWX9+2mwVELQAh47ZXe9tXt17Y20JbPu5mnQUgagGI/nFrbwvDUdrNAqIWgCzZ20LWFnazgKgFYAjsbSEvdrOAqAVgmHFrbwvR2c0CohYAH8X2thBPaTcLiFoAOMXeFkJY2M0CohYAzmdvC/1kNwuIWgBYJW7tbaEv7GYBUQsAV/2YtreF7pR2s4CoBYAG2NtCqxZ2s4CoBYDm2dvCetnNAqIWANqIW3tbaJrdLCBqAaDtj3B7W7i+0m4WELUA0CF7W7iShd0sIGoBoD/sbeFy7GYBUQsAfY5be1s4j90sIGoBIMrHu70tfFTazQKiFgACsrdl4BZ2s4CoBYD47G0ZGrtZQNQCQI5xa29L/uxmAVELALl/9NvbkqPyJGbtZgFRCwBDYG9LJhandrMLxwGIWgAYFntbonqbUnpoNwuIWgAgJXtbQvmwm/36ibMARC0AcDoWTu1texC39rZ8qrSbBUQtAHCh93vb0YG9LT2xsJsFRC0AsKrf97Z/nR3N+hG3k3lRVHc9SR4Mu1lA1DoCALh+3I7Ho4Pe7G1fTkp72yGwmwUQtQDQbGT0cm9bFNVjP5uslHazAKIWANamb3vb3ZeTHXvbLCzsZgFELQC0xd6WptjNAohaAOgubu1tuTq7WQBRCwD9iBN7W1ZR2s0CiFoA6B17Wy6wsJsFELUA0Hf2tnzObhZA1AJAvLi1t8VuFkDUAkD0qLG3HabSbhZA1AJANuxtB2NhNwsgagEgV/a2+bKbBRC1ADCcuLW3zYndLICoBYBhxpC9bWyl3SyAqAWAwbO3DWdhNwsgagGAT9nb9p/dLICoBQAuilt72z6qH9vNAohaAODyEWVv2w/lyW52x24WQNQCACuyt+1K/dpuFkDUAgDNsLdtz8lu9ps7drMAohYAaDhu7W3XyW4WQNQCAG3El71ts0q7WQBRCwC0zN722v84YDcLIGoBgI7Z267ObhZA1AIAfYtbe9vLsJsFELUAQI/Z256jtJsFELUAQBD2tr9Hvt0sgKgFAIIa8t7WbhZA1AIAucTtsPa2drMAuSgcAQDn2do8rp3CMNX1aGdUvdvbLSeLrn8v89k/bqb0z+lu+Z+vr/trzWY/z1J6t/DMGEDUAiBqyd+iqqvHf9uf7DoKAEQtAKKWsHG7XFYP/l5OSkcBQN/Y1AIAF+nV3hYATnNTC8C53NRylj7tbQHATS0AsJI+/f+2AOCmFoBzuanlEhbLlB7+/dWtF44CgC64qQUArmM6Tum5vS0AXXFTC8C53NSy+pfF6Enx7t1Te1sA2uKmFgBoTl1t29sC0CY3tQCcy00t12RvC8DauakFANbF3haAtXNTC8C53NTS7FeHvS0AzXNTCwC0w94WgDVwUwvAudzUskb2tgA0wk0tANAFe1sAGuGmFoBzuamlvS8Se1sArsZNLQDQPXtbAK7ITS0A53JTS0fsbQG4NDe1AEDf2NsCcGluagE4l5ta+vG1Ym8LwPluOAIAoNfqarsejW6mlB44DAA+5/kxAAAAohYAAABELQAAAIhaAAAARC0AAACIWgAAABC1AAAAIGoBAAAQtQAAACBqAQAAQNQCAAAgagEAAEDUAgAAgKgFAAAAUQsAAICoBQAAAFELAAAAohYAAABRCwAAAKIWAAAARC0AAACIWgAAAEQtAAAAiFoAAAAQtQAAAIhaAAAAELUAAAAgagEAAEDUAgAAIGoBAABA1AIAAICoBQAAQNQCAACAqAUAAABRCwAAAKIWAAAAUQsAAACiFgAAAEQtAAAAohYAAABELQAAAIhaAAAAELUAAACIWgAAABC1AAAAIGoBAAAQtQAAACBqAQAAQNQCAACAqAUAAEDUAgAAgKgFAAAAUQsAAACiFgAAAFELAAAAohYAAABELQAAAKIWAAAARC0AAACIWgAAABC1AAAAiFoAAAAQtQAAACBqAQAAELUAAAAgagEAAEDUAgAAgKgFAABA1AIAAICoBQAAAFELAACAqAUAAABRCwAAAKIWAAAARC0AAACiFgAAAEQtAAAAiFoAAABELQAAAIhaAAAAELUAAAAgagEAABC1AAAAIGoBAABA1AIAACBqAQAAQNQCAACAqAUAAABRCwAAgKgFAAAAUQsAAACiFgAAAFELAF+q08IhAACiFoCQ9vZv3S6K6nGqi7dOAwAQtQCEs/tyslNUyzt1qvacBgAgagGIF7blZPHjq8m8WFa3U0qvnQgAIGoBCBm3e69u3Snq6oG9LQAgagGIGbf7k117WwBA1AIQO27tbQEAUQtA6LC1twUARC0AOcStvS0AIGoBiB239rYAgKgFIHzc2tsCAKIWgNBha28LAIhaAHKIW3tbAEDUAhA7bu1tAQBRC0D4uLW3BQBELQChw9beFgAQtQDkELf2tgCAqAUgdtza2wIAohaA8HFrbwsAiFoAQoetvS0AIGoByCFu7W0BAFELQOy4tbcFAEQtAOHj1t4WABC1AIQOW3tbAEDUApBD3NrbAgCiFoDYcWtvCwCiFgDCx629LQCIWgAIHbaf7G3r0okAgKgFgJBxu/fqq7v2tgAgagEgbtx+srcVtwAgagEgYty+nOwUVXXX3hYARC0AxAxbe1sAELUAkEPc2tsCgKgFgNhxa28LAKIWAMLHrb0tAIhaAAgdtva2ACBqASCHuLW3BQBRCwCx49beFgBELQCEj1t7WwAQtQAQOmztbQFA1AJADnFrbwsAohYAYsetvS0AiFoACB+39rYAIGoBIHTY2tsCgKgFgBzi1t4WAEQtAMSOW3tbABC1ABA+bu1tAUDUAkDosLW3BQBRCwA5xK29LQCIWgCIHbf2tgAgagEgfNza2wKAqAWA0GFrbwsAohYAcohbe1sAELUAEDtu7W0BQNQCQPi4tbcFAFELAKHD1t4WAEQtAOQQt/a2ACBqASB23NrbAoCoBYDwcWtvCwCiFgBCh629LQCIWgDIIW7tbQFA1AJA7Li1twUAUQsA4ePW3hYAUQsAhA5be1sARC0AkEPc2tsCIGoBgNhxa28LgKgFAMLHrb0tAKIWAAgdtva2AIhaACCHuLW3BUDUAgCx49beFgBRCwCEj1t7WwBELQAQOmztbQEQtQBADnFrbwuAqAUAYsetvS0AohYACB+39rYAiFoAIHTY2tsCIGoBgBzi1t4WAFELAMSOW3tbAEQtABA+bu1tARC1AEDosLW3BUDUAgA5xK29LQCiFgCIHbf2tgCIWgAgfNza2wIgagGA0GFrbwuAqAUAcohbe1sARC0AEDtu7W0BELUAQPi4tbcFQNQCAKHD1t4WAFELAOQQt/a2AIhaACB23H7Y29bLh+IWAFELAASN2z8/sbcFQNQCAHHD9tO97QsnAoCoBQBCxu3eq6/u2dsCAAAQ3nzj/7fnG0c7TgIAAAAAAAAAAAAAAAAAAAAAAAAAAAAAAAAAAAAAAAAAAAAAAAAAAAAAAAAAAAAAAAAAAAAAAAAAAAAAAAAAAAAAAAAAAAAAAAAAAAAAAAAAAAAAAAAAAAAAAAAAAAAAAAAAAAAAAAAAAAAAAAAAAAAAAAAAAAAAAAAAAAAAAAAAAAAAAAAAAAAAAAAAAAAAAAAAAAAAAAAAAAAAAAAAAAAAAAAAAAAAAAAAAAAAAAAAAAAAAAAAAAAAAAAAAAAAAAAAAAAAAAAAAAAAAAAAAAAAAAAAAAAAAAAAgBb8C70HhvqxspEsAAAAAElFTkSuQmCC" vertex="1" parent="1">
          <mxGeometry x="135.24" y="332" width="139.52" height="104.67" as="geometry" />
        </mxCell>
        <mxCell id="BZ9eJyMp1eCeKyl2T3HH-25" value="" style="endArrow=classic;html=1;rounded=0;exitX=0.5;exitY=0;exitDx=0;exitDy=0;entryX=0.5;entryY=1;entryDx=0;entryDy=0;" edge="1" parent="1" source="BZ9eJyMp1eCeKyl2T3HH-21" target="BZ9eJyMp1eCeKyl2T3HH-24">
          <mxGeometry width="50" height="50" relative="1" as="geometry">
            <mxPoint x="170" y="300" as="sourcePoint" />
            <mxPoint x="220" y="250" as="targetPoint" />
          </mxGeometry>
        </mxCell>
        <mxCell id="BZ9eJyMp1eCeKyl2T3HH-27" value="&lt;font color=&quot;#000000&quot;&gt;App Service EU WEST&lt;/font&gt;" style="text;html=1;strokeColor=none;fillColor=none;align=center;verticalAlign=middle;whiteSpace=wrap;rounded=0;fontStyle=0;fontColor=#FFFFFF;" vertex="1" parent="1">
          <mxGeometry x="280" y="110" width="60" height="30" as="geometry" />
        </mxCell>
        <mxCell id="BZ9eJyMp1eCeKyl2T3HH-28" value="" style="image;aspect=fixed;html=1;points=[];align=center;fontSize=12;image=img/lib/azure2/general/Blob_Block.svg;" vertex="1" parent="1">
          <mxGeometry x="240" y="10" width="40" height="32" as="geometry" />
        </mxCell>
        <mxCell id="BZ9eJyMp1eCeKyl2T3HH-30" value="" style="endArrow=classic;html=1;rounded=0;entryX=0.507;entryY=1.013;entryDx=0;entryDy=0;entryPerimeter=0;" edge="1" parent="1" source="BZ9eJyMp1eCeKyl2T3HH-5" target="BZ9eJyMp1eCeKyl2T3HH-28">
          <mxGeometry width="50" height="50" relative="1" as="geometry">
            <mxPoint x="170" y="150" as="sourcePoint" />
            <mxPoint x="220" y="100" as="targetPoint" />
          </mxGeometry>
        </mxCell>
        <mxCell id="BZ9eJyMp1eCeKyl2T3HH-31" value="" style="image;aspect=fixed;perimeter=ellipsePerimeter;html=1;align=center;shadow=0;dashed=0;spacingTop=3;image=img/lib/active_directory/internet_cloud.svg;" vertex="1" parent="1">
          <mxGeometry x="-40" y="115" width="50" height="31.5" as="geometry" />
        </mxCell>
        <mxCell id="BZ9eJyMp1eCeKyl2T3HH-32" value="" style="endArrow=classic;html=1;rounded=0;exitX=1;exitY=0.5;exitDx=0;exitDy=0;entryX=0;entryY=0.5;entryDx=0;entryDy=0;" edge="1" parent="1" source="BZ9eJyMp1eCeKyl2T3HH-31" target="BZ9eJyMp1eCeKyl2T3HH-1">
          <mxGeometry width="50" height="50" relative="1" as="geometry">
            <mxPoint x="170" y="150" as="sourcePoint" />
            <mxPoint x="220" y="100" as="targetPoint" />
          </mxGeometry>
        </mxCell>
        <mxCell id="BZ9eJyMp1eCeKyl2T3HH-33" value="Azure Blob storage" style="text;html=1;align=center;verticalAlign=middle;resizable=0;points=[];autosize=1;strokeColor=none;fillColor=none;" vertex="1" parent="1">
          <mxGeometry x="200" y="-20" width="130" height="30" as="geometry" />
        </mxCell>
        <mxCell id="BZ9eJyMp1eCeKyl2T3HH-34" value="CDNs" style="text;html=1;align=center;verticalAlign=middle;resizable=0;points=[];autosize=1;strokeColor=none;fillColor=none;" vertex="1" parent="1">
          <mxGeometry x="124" y="20" width="60" height="30" as="geometry" />
        </mxCell>
        <mxCell id="BZ9eJyMp1eCeKyl2T3HH-35" value="App Insight" style="text;html=1;align=center;verticalAlign=middle;resizable=0;points=[];autosize=1;strokeColor=none;fillColor=none;" vertex="1" parent="1">
          <mxGeometry x="305.01" y="170" width="80" height="30" as="geometry" />
        </mxCell>
        <mxCell id="BZ9eJyMp1eCeKyl2T3HH-36" value="&lt;div&gt;Cost Management&lt;/div&gt;" style="text;html=1;align=center;verticalAlign=middle;resizable=0;points=[];autosize=1;strokeColor=none;fillColor=none;" vertex="1" parent="1">
          <mxGeometry x="185.01" y="180" width="120" height="30" as="geometry" />
        </mxCell>
        <mxCell id="BZ9eJyMp1eCeKyl2T3HH-37" value="Front Door" style="text;html=1;align=center;verticalAlign=middle;resizable=0;points=[];autosize=1;strokeColor=none;fillColor=none;" vertex="1" parent="1">
          <mxGeometry x="20" y="80" width="80" height="30" as="geometry" />
        </mxCell>
        <mxCell id="BZ9eJyMp1eCeKyl2T3HH-38" value="Internet" style="text;html=1;align=center;verticalAlign=middle;resizable=0;points=[];autosize=1;strokeColor=none;fillColor=none;" vertex="1" parent="1">
          <mxGeometry x="-44" y="84" width="58" height="26" as="geometry" />
        </mxCell>
      </root>
    </mxGraphModel>
  </diagram>
</mxfile>
